%TF.GenerationSoftware,KiCad,Pcbnew,10.0.1*%
%TF.CreationDate,2026-04-28T09:51:18-03:00*%
%TF.ProjectId,Projeto_Placa_de_rele,50726f6a-6574-46f5-9f50-6c6163615f64,rev?*%
%TF.SameCoordinates,Original*%
%TF.FileFunction,Legend,Top*%
%TF.FilePolarity,Positive*%
%FSLAX46Y46*%
G04 Gerber Fmt 4.6, Leading zero omitted, Abs format (unit mm)*
G04 Created by KiCad (PCBNEW 10.0.1) date 2026-04-28 09:51:18*
%MOMM*%
%LPD*%
G01*
G04 APERTURE LIST*
%ADD10C,0.250000*%
%ADD11C,0.150000*%
%ADD12C,0.120000*%
G04 APERTURE END LIST*
D10*
G36*
X155335429Y-115635116D02*
G01*
X155386722Y-115646544D01*
X155429979Y-115664506D01*
X155469805Y-115689432D01*
X155502537Y-115717751D01*
X155528958Y-115749563D01*
X155559250Y-115802513D01*
X155576524Y-115854466D01*
X155586746Y-115934996D01*
X155590935Y-116064209D01*
X155590935Y-116196039D01*
X155970000Y-116196039D01*
X155970000Y-116398211D01*
X154965673Y-116398211D01*
X154965673Y-116098342D01*
X155133712Y-116098342D01*
X155133712Y-116196039D01*
X155422896Y-116196039D01*
X155422896Y-116085397D01*
X155417802Y-115975708D01*
X155406898Y-115925540D01*
X155386222Y-115889371D01*
X155356889Y-115862342D01*
X155320514Y-115845307D01*
X155277632Y-115839445D01*
X155241770Y-115843222D01*
X155211582Y-115853991D01*
X155185858Y-115871563D01*
X155164799Y-115894829D01*
X155149825Y-115921681D01*
X155140673Y-115952834D01*
X155135938Y-115998092D01*
X155133712Y-116098342D01*
X154965673Y-116098342D01*
X154965673Y-116073735D01*
X154970581Y-115905085D01*
X154980755Y-115833278D01*
X155001514Y-115779387D01*
X155033884Y-115731645D01*
X155079063Y-115689113D01*
X155132310Y-115657760D01*
X155196553Y-115638063D01*
X155274518Y-115631045D01*
X155335429Y-115635116D01*
G37*
G36*
X155970000Y-115282815D02*
G01*
X155970000Y-115474790D01*
X155243133Y-115474790D01*
X155243133Y-115296493D01*
X155346264Y-115296493D01*
X155281009Y-115249390D01*
X155248384Y-115214183D01*
X155229867Y-115175403D01*
X155223593Y-115131202D01*
X155227531Y-115088433D01*
X155239417Y-115046509D01*
X155259741Y-115004806D01*
X155426926Y-115064218D01*
X155402738Y-115112907D01*
X155395540Y-115154405D01*
X155401309Y-115192139D01*
X155417950Y-115222732D01*
X155446543Y-115246154D01*
X155498855Y-115266756D01*
X155573211Y-115277623D01*
X155744075Y-115282815D01*
X155970000Y-115282815D01*
G37*
G36*
X155686072Y-114225090D02*
G01*
X155758121Y-114245260D01*
X155822394Y-114278157D01*
X155880179Y-114324345D01*
X155927992Y-114380832D01*
X155961799Y-114443324D01*
X155982415Y-114513061D01*
X155989539Y-114591791D01*
X155984485Y-114657201D01*
X155969387Y-114720382D01*
X155943988Y-114782056D01*
X155908674Y-114837869D01*
X155864461Y-114883409D01*
X155810509Y-114919687D01*
X155750107Y-114945081D01*
X155679336Y-114961137D01*
X155596186Y-114966826D01*
X155532901Y-114961658D01*
X155470826Y-114946102D01*
X155409218Y-114919687D01*
X155353289Y-114883557D01*
X155307628Y-114839275D01*
X155271221Y-114786147D01*
X155244982Y-114726949D01*
X155229046Y-114662964D01*
X155223593Y-114593135D01*
X155223652Y-114592463D01*
X155379909Y-114592463D01*
X155386415Y-114639960D01*
X155405554Y-114681548D01*
X155438344Y-114718859D01*
X155480200Y-114746038D01*
X155535023Y-114763625D01*
X155606566Y-114770088D01*
X155678110Y-114763626D01*
X155732955Y-114746040D01*
X155774849Y-114718859D01*
X155807603Y-114681552D01*
X155826723Y-114639964D01*
X155833224Y-114592463D01*
X155826715Y-114544976D01*
X155807590Y-114503516D01*
X155774849Y-114466434D01*
X155732957Y-114439479D01*
X155677696Y-114421966D01*
X155605162Y-114415509D01*
X155534557Y-114421911D01*
X155480152Y-114439374D01*
X155438344Y-114466434D01*
X155405566Y-114503520D01*
X155386423Y-114544980D01*
X155379909Y-114592463D01*
X155223652Y-114592463D01*
X155230714Y-114512519D01*
X155251215Y-114441835D01*
X155284632Y-114379211D01*
X155331610Y-114323307D01*
X155388666Y-114277591D01*
X155452228Y-114245015D01*
X155523583Y-114225030D01*
X155604490Y-114218100D01*
X155686072Y-114225090D01*
G37*
G36*
X155141528Y-114071676D02*
G01*
X154965673Y-114071676D01*
X154965673Y-113879701D01*
X155141528Y-113879701D01*
X155141528Y-114071676D01*
G37*
G36*
X155243133Y-113879701D02*
G01*
X155948811Y-113879701D01*
X156077795Y-113885256D01*
X156145244Y-113897836D01*
X156180724Y-113913657D01*
X156210300Y-113936651D01*
X156234759Y-113967506D01*
X156252036Y-114003244D01*
X156263051Y-114046508D01*
X156266999Y-114098970D01*
X156261809Y-114160825D01*
X156246360Y-114232205D01*
X156081069Y-114198682D01*
X156085526Y-114173037D01*
X156087236Y-114150872D01*
X156083845Y-114123358D01*
X156074535Y-114102756D01*
X156060240Y-114086834D01*
X156044066Y-114077843D01*
X156017726Y-114073842D01*
X155937210Y-114071676D01*
X155243133Y-114071676D01*
X155243133Y-113879701D01*
G37*
G36*
X155661277Y-113538005D02*
G01*
X155716333Y-113531344D01*
X155759639Y-113515575D01*
X155793717Y-113491538D01*
X155820063Y-113459424D01*
X155835677Y-113423022D01*
X155841039Y-113380896D01*
X155834800Y-113338675D01*
X155816981Y-113305059D01*
X155787351Y-113279142D01*
X155739434Y-113258592D01*
X155770697Y-113067349D01*
X155838081Y-113097680D01*
X155891703Y-113136471D01*
X155933607Y-113183853D01*
X155963893Y-113239396D01*
X155982836Y-113304991D01*
X155989539Y-113382972D01*
X155983911Y-113458858D01*
X155968039Y-113523032D01*
X155942886Y-113577495D01*
X155908633Y-113623810D01*
X155864670Y-113662997D01*
X155813307Y-113693449D01*
X155754917Y-113715814D01*
X155688313Y-113729828D01*
X155612062Y-113734743D01*
X155521047Y-113728118D01*
X155444766Y-113709517D01*
X155380678Y-113680193D01*
X155326786Y-113640465D01*
X155281447Y-113589947D01*
X155249597Y-113534205D01*
X155230261Y-113472127D01*
X155223593Y-113402084D01*
X155224656Y-113390422D01*
X155372093Y-113390422D01*
X155377336Y-113430275D01*
X155392587Y-113464416D01*
X155418377Y-113494286D01*
X155451423Y-113516274D01*
X155492563Y-113529968D01*
X155544040Y-113534586D01*
X155544040Y-113247662D01*
X155489331Y-113254032D01*
X155447595Y-113268742D01*
X155415935Y-113290710D01*
X155391385Y-113320310D01*
X155376990Y-113353144D01*
X155372093Y-113390422D01*
X155224656Y-113390422D01*
X155230825Y-113322758D01*
X155251426Y-113255125D01*
X155284712Y-113196928D01*
X155331304Y-113146606D01*
X155374714Y-113115529D01*
X155427549Y-113090386D01*
X155491504Y-113071595D01*
X155568633Y-113060055D01*
X155661277Y-113057091D01*
X155661277Y-113538005D01*
G37*
G36*
X155450251Y-112268492D02*
G01*
X155485422Y-112457719D01*
X155449458Y-112467383D01*
X155421721Y-112481953D01*
X155400608Y-112501133D01*
X155385144Y-112525094D01*
X155375512Y-112553919D01*
X155372093Y-112588878D01*
X155377964Y-112634350D01*
X155394770Y-112671857D01*
X155422773Y-112703306D01*
X155459299Y-112725082D01*
X155513643Y-112740151D01*
X155592156Y-112745987D01*
X155679889Y-112739956D01*
X155739577Y-112724542D01*
X155778757Y-112702634D01*
X155808996Y-112670423D01*
X155826975Y-112632237D01*
X155833224Y-112586130D01*
X155829483Y-112550923D01*
X155818850Y-112521521D01*
X155801533Y-112496676D01*
X155778007Y-112477347D01*
X155742896Y-112460670D01*
X155692540Y-112447461D01*
X155723803Y-112258906D01*
X155788467Y-112278073D01*
X155842114Y-112303448D01*
X155886361Y-112334616D01*
X155922433Y-112371624D01*
X155950664Y-112414677D01*
X155971575Y-112465269D01*
X155984832Y-112524799D01*
X155989539Y-112594984D01*
X155982717Y-112673213D01*
X155963264Y-112740308D01*
X155931876Y-112798346D01*
X155888117Y-112848813D01*
X155835002Y-112888728D01*
X155771885Y-112918134D01*
X155696804Y-112936765D01*
X155607238Y-112943396D01*
X155516580Y-112936709D01*
X155440928Y-112917960D01*
X155377655Y-112888438D01*
X155324710Y-112848447D01*
X155281210Y-112797872D01*
X155249903Y-112739350D01*
X155230437Y-112671321D01*
X155223593Y-112591625D01*
X155227589Y-112524681D01*
X155238782Y-112468283D01*
X155256273Y-112420797D01*
X155279586Y-112380844D01*
X155321775Y-112335003D01*
X155377714Y-112297499D01*
X155450251Y-112268492D01*
G37*
G36*
X155243133Y-111790692D02*
G01*
X155395540Y-111790692D01*
X155395540Y-111921851D01*
X155690708Y-111921851D01*
X155795183Y-111918126D01*
X155808613Y-111912035D01*
X155819668Y-111901029D01*
X155826809Y-111886568D01*
X155829316Y-111868545D01*
X155825513Y-111839431D01*
X155810875Y-111791364D01*
X155960657Y-111775000D01*
X155976400Y-111820458D01*
X155986157Y-111870761D01*
X155989539Y-111926674D01*
X155984992Y-111976820D01*
X155971953Y-112020280D01*
X155950954Y-112057492D01*
X155926463Y-112081402D01*
X155895356Y-112097227D01*
X155851053Y-112108330D01*
X155808756Y-112112522D01*
X155714583Y-112114497D01*
X155395540Y-112114497D01*
X155395540Y-112202608D01*
X155243133Y-112202608D01*
X155243133Y-112114497D01*
X155102449Y-112114497D01*
X154989120Y-111921851D01*
X155243133Y-111921851D01*
X155243133Y-111790692D01*
G37*
G36*
X155372093Y-110732937D02*
G01*
X155567487Y-110772749D01*
X155567487Y-110607274D01*
X155719895Y-110607274D01*
X155719895Y-110803829D01*
X155985631Y-110857990D01*
X155985631Y-111010336D01*
X155719895Y-110957763D01*
X155719895Y-111109865D01*
X155985631Y-111163354D01*
X155985631Y-111317716D01*
X155719895Y-111263921D01*
X155719895Y-111356673D01*
X155567487Y-111356673D01*
X155567487Y-111233025D01*
X155372093Y-111193457D01*
X155372093Y-111356673D01*
X155219685Y-111356673D01*
X155219685Y-111162561D01*
X154950041Y-111107972D01*
X154950041Y-111039890D01*
X155372093Y-111039890D01*
X155567487Y-111079213D01*
X155567487Y-110927599D01*
X155372093Y-110888886D01*
X155372093Y-111039890D01*
X154950041Y-111039890D01*
X154950041Y-110954954D01*
X155219685Y-111009237D01*
X155219685Y-110858722D01*
X154950041Y-110805355D01*
X154950041Y-110646903D01*
X155219685Y-110701857D01*
X155219685Y-110607274D01*
X155372093Y-110607274D01*
X155372093Y-110732937D01*
G37*
G36*
X155970000Y-110040692D02*
G01*
X155970000Y-110232667D01*
X155248628Y-110232667D01*
X155308851Y-110306613D01*
X155357728Y-110388935D01*
X155395540Y-110480635D01*
X155219685Y-110480635D01*
X155199883Y-110432228D01*
X155169411Y-110378110D01*
X155126263Y-110317358D01*
X155076516Y-110263569D01*
X155023185Y-110223786D01*
X154965673Y-110196458D01*
X154965673Y-110040692D01*
X155970000Y-110040692D01*
G37*
G36*
X155434619Y-109676282D02*
G01*
X155243133Y-109676282D01*
X155243133Y-109484368D01*
X155434619Y-109484368D01*
X155434619Y-109676282D01*
G37*
G36*
X155970000Y-109676282D02*
G01*
X155778513Y-109676282D01*
X155778513Y-109484368D01*
X155970000Y-109484368D01*
X155970000Y-109676282D01*
G37*
G36*
X155970000Y-108197758D02*
G01*
X155751769Y-108343937D01*
X155646484Y-108416950D01*
X155604734Y-108450488D01*
X155578630Y-108480829D01*
X155563152Y-108511304D01*
X155555230Y-108548155D01*
X155551856Y-108613093D01*
X155551856Y-108654064D01*
X155970000Y-108654064D01*
X155970000Y-108856297D01*
X154965673Y-108856297D01*
X154965673Y-108496284D01*
X155133712Y-108496284D01*
X155133712Y-108654064D01*
X155391632Y-108654064D01*
X155391632Y-108504466D01*
X155387425Y-108372255D01*
X155379176Y-108322749D01*
X155362054Y-108290325D01*
X155336189Y-108266085D01*
X155302912Y-108250986D01*
X155259924Y-108245568D01*
X155226666Y-108248820D01*
X155199468Y-108257948D01*
X155177065Y-108272557D01*
X155151782Y-108304199D01*
X155137192Y-108348700D01*
X155133712Y-108496284D01*
X154965673Y-108496284D01*
X154965673Y-108430704D01*
X154969501Y-108322458D01*
X154979276Y-108247342D01*
X154992784Y-108197452D01*
X155015411Y-108152377D01*
X155047234Y-108113786D01*
X155089260Y-108080949D01*
X155137109Y-108056880D01*
X155189599Y-108042254D01*
X155247834Y-108037229D01*
X155303744Y-108041658D01*
X155352826Y-108054375D01*
X155396254Y-108074951D01*
X155434924Y-108103541D01*
X155466900Y-108138729D01*
X155493246Y-108182403D01*
X155513810Y-108236062D01*
X155527920Y-108301622D01*
X155569120Y-108240437D01*
X155612001Y-108193361D01*
X155667770Y-108148737D01*
X155774605Y-108078201D01*
X155970000Y-107955957D01*
X155970000Y-108197758D01*
G37*
G36*
X155661277Y-107707440D02*
G01*
X155716333Y-107700779D01*
X155759639Y-107685010D01*
X155793717Y-107660973D01*
X155820063Y-107628859D01*
X155835677Y-107592456D01*
X155841039Y-107550331D01*
X155834800Y-107508110D01*
X155816981Y-107474494D01*
X155787351Y-107448577D01*
X155739434Y-107428026D01*
X155770697Y-107236784D01*
X155838081Y-107267114D01*
X155891703Y-107305905D01*
X155933607Y-107353288D01*
X155963893Y-107408831D01*
X155982836Y-107474426D01*
X155989539Y-107552407D01*
X155983911Y-107628293D01*
X155968039Y-107692466D01*
X155942886Y-107746930D01*
X155908633Y-107793245D01*
X155864670Y-107832431D01*
X155813307Y-107862884D01*
X155754917Y-107885248D01*
X155688313Y-107899263D01*
X155612062Y-107904178D01*
X155521047Y-107897553D01*
X155444766Y-107878951D01*
X155380678Y-107849627D01*
X155326786Y-107809900D01*
X155281447Y-107759382D01*
X155249597Y-107703639D01*
X155230261Y-107641562D01*
X155223593Y-107571519D01*
X155224656Y-107559856D01*
X155372093Y-107559856D01*
X155377336Y-107599710D01*
X155392587Y-107633851D01*
X155418377Y-107663721D01*
X155451423Y-107685708D01*
X155492563Y-107699402D01*
X155544040Y-107704021D01*
X155544040Y-107417096D01*
X155489331Y-107423467D01*
X155447595Y-107438177D01*
X155415935Y-107460144D01*
X155391385Y-107489745D01*
X155376990Y-107522579D01*
X155372093Y-107559856D01*
X155224656Y-107559856D01*
X155230825Y-107492193D01*
X155251426Y-107424560D01*
X155284712Y-107366363D01*
X155331304Y-107316041D01*
X155374714Y-107284964D01*
X155427549Y-107259821D01*
X155491504Y-107241030D01*
X155568633Y-107229489D01*
X155661277Y-107226526D01*
X155661277Y-107707440D01*
G37*
G36*
X155970000Y-107070455D02*
G01*
X154965673Y-107070455D01*
X154965673Y-106878541D01*
X155970000Y-106878541D01*
X155970000Y-107070455D01*
G37*
G36*
X155970000Y-106241006D02*
G01*
X155914068Y-106259446D01*
X155891842Y-106266285D01*
X155935149Y-106317978D01*
X155965115Y-106371493D01*
X155983374Y-106429090D01*
X155989539Y-106491050D01*
X155985294Y-106546805D01*
X155973324Y-106593870D01*
X155954335Y-106633758D01*
X155928417Y-106667637D01*
X155895810Y-106695893D01*
X155859719Y-106715834D01*
X155819418Y-106727982D01*
X155773872Y-106732178D01*
X155733509Y-106728802D01*
X155697012Y-106718972D01*
X155663658Y-106702808D01*
X155633993Y-106680693D01*
X155609399Y-106653453D01*
X155589530Y-106620498D01*
X155567004Y-106561234D01*
X155544528Y-106467847D01*
X155517401Y-106343988D01*
X155497145Y-106281367D01*
X155622198Y-106281367D01*
X155651690Y-106398176D01*
X155670842Y-106470771D01*
X155685334Y-106502712D01*
X155705375Y-106524054D01*
X155727679Y-106536188D01*
X155753234Y-106540265D01*
X155779021Y-106536931D01*
X155802108Y-106527077D01*
X155823271Y-106510223D01*
X155839507Y-106488638D01*
X155849336Y-106463483D01*
X155852763Y-106433714D01*
X155849070Y-106400174D01*
X155837863Y-106367381D01*
X155818447Y-106334673D01*
X155789044Y-106305496D01*
X155754638Y-106288878D01*
X155724377Y-106283735D01*
X155660605Y-106281367D01*
X155622198Y-106281367D01*
X155497145Y-106281367D01*
X155477484Y-106281367D01*
X155440553Y-106284954D01*
X155414451Y-106294420D01*
X155396334Y-106308722D01*
X155384271Y-106328737D01*
X155375573Y-106361356D01*
X155372093Y-106411854D01*
X155377812Y-106459363D01*
X155392915Y-106491782D01*
X155419421Y-106516331D01*
X155465882Y-106538189D01*
X155434619Y-106712395D01*
X155366493Y-106686823D01*
X155314345Y-106653062D01*
X155275312Y-106611339D01*
X155254384Y-106574929D01*
X155238183Y-106528744D01*
X155227501Y-106470657D01*
X155223593Y-106398176D01*
X155227780Y-106312142D01*
X155238665Y-106250219D01*
X155254185Y-106206934D01*
X155277601Y-106167503D01*
X155303466Y-106138604D01*
X155331854Y-106118457D01*
X155364976Y-106105950D01*
X155419732Y-106096592D01*
X155504717Y-106092812D01*
X155730153Y-106094827D01*
X155820013Y-106092087D01*
X155872058Y-106085607D01*
X155918026Y-106072857D01*
X155970000Y-106051107D01*
X155970000Y-106241006D01*
G37*
G36*
X155243133Y-105994809D02*
G01*
X155243133Y-105790561D01*
X155760500Y-105617088D01*
X155243133Y-105447644D01*
X155243133Y-105248892D01*
X155943072Y-105505041D01*
X156071849Y-105550776D01*
X156131019Y-105577085D01*
X156168691Y-105598953D01*
X156199361Y-105623918D01*
X156222974Y-105651587D01*
X156241045Y-105683700D01*
X156255397Y-105724677D01*
X156263950Y-105769614D01*
X156266999Y-105822679D01*
X156264104Y-105877589D01*
X156255458Y-105931306D01*
X156105615Y-105948403D01*
X156112486Y-105904277D01*
X156114591Y-105867131D01*
X156109673Y-105824300D01*
X156096226Y-105792163D01*
X156074902Y-105768091D01*
X156031260Y-105740426D01*
X155973907Y-105718876D01*
X155243133Y-105994809D01*
G37*
G36*
X155723623Y-103900063D02*
G01*
X155767916Y-103910549D01*
X155811974Y-103928332D01*
X155852785Y-103952445D01*
X155887082Y-103981294D01*
X155915533Y-104015099D01*
X155937473Y-104053396D01*
X155953480Y-104098209D01*
X155963161Y-104150715D01*
X155967051Y-104218571D01*
X155970000Y-104394591D01*
X155970000Y-104735432D01*
X154965673Y-104735432D01*
X154965673Y-104417062D01*
X155133712Y-104417062D01*
X155133712Y-104533199D01*
X155364277Y-104533199D01*
X155364277Y-104400697D01*
X155363561Y-104369923D01*
X155532316Y-104369923D01*
X155532316Y-104533199D01*
X155801960Y-104533199D01*
X155801960Y-104346048D01*
X155799906Y-104246508D01*
X155795793Y-104207379D01*
X155781401Y-104166172D01*
X155755554Y-104133984D01*
X155732703Y-104118644D01*
X155704619Y-104109030D01*
X155669886Y-104105591D01*
X155627149Y-104111287D01*
X155592889Y-104127451D01*
X155565893Y-104153669D01*
X155546788Y-104190648D01*
X155537035Y-104243888D01*
X155532316Y-104369923D01*
X155363561Y-104369923D01*
X155360858Y-104253785D01*
X155348379Y-104206286D01*
X155325198Y-104172208D01*
X155303818Y-104155932D01*
X155278249Y-104145977D01*
X155247285Y-104142472D01*
X155204531Y-104149183D01*
X155172180Y-104168117D01*
X155156036Y-104186985D01*
X155144231Y-104211846D01*
X155137131Y-104244260D01*
X155133712Y-104417062D01*
X154965673Y-104417062D01*
X154965673Y-104335118D01*
X154968609Y-104223827D01*
X154975626Y-104157859D01*
X154991072Y-104102127D01*
X155017025Y-104053323D01*
X155053273Y-104011468D01*
X155100861Y-103976509D01*
X155136828Y-103959532D01*
X155175715Y-103949249D01*
X155218220Y-103945734D01*
X155264126Y-103949982D01*
X155306996Y-103962557D01*
X155347608Y-103983653D01*
X155383581Y-104011932D01*
X155412856Y-104045986D01*
X155435901Y-104086479D01*
X155458744Y-104028566D01*
X155489151Y-103982280D01*
X155527126Y-103945795D01*
X155572202Y-103918630D01*
X155622245Y-103902224D01*
X155678618Y-103896580D01*
X155723623Y-103900063D01*
G37*
G36*
X155686072Y-103029975D02*
G01*
X155758121Y-103050145D01*
X155822394Y-103083042D01*
X155880179Y-103129230D01*
X155927992Y-103185717D01*
X155961799Y-103248209D01*
X155982415Y-103317945D01*
X155989539Y-103396676D01*
X155984485Y-103462086D01*
X155969387Y-103525266D01*
X155943988Y-103586941D01*
X155908674Y-103642754D01*
X155864461Y-103688294D01*
X155810509Y-103724572D01*
X155750107Y-103749966D01*
X155679336Y-103766022D01*
X155596186Y-103771711D01*
X155532901Y-103766543D01*
X155470826Y-103750987D01*
X155409218Y-103724572D01*
X155353289Y-103688442D01*
X155307628Y-103644159D01*
X155271221Y-103591032D01*
X155244982Y-103531834D01*
X155229046Y-103467849D01*
X155223593Y-103398019D01*
X155223652Y-103397348D01*
X155379909Y-103397348D01*
X155386415Y-103444844D01*
X155405554Y-103486433D01*
X155438344Y-103523743D01*
X155480200Y-103550922D01*
X155535023Y-103568510D01*
X155606566Y-103574973D01*
X155678110Y-103568511D01*
X155732955Y-103550925D01*
X155774849Y-103523743D01*
X155807603Y-103486437D01*
X155826723Y-103444849D01*
X155833224Y-103397348D01*
X155826715Y-103349861D01*
X155807590Y-103308401D01*
X155774849Y-103271318D01*
X155732957Y-103244364D01*
X155677696Y-103226851D01*
X155605162Y-103220394D01*
X155534557Y-103226796D01*
X155480152Y-103244259D01*
X155438344Y-103271318D01*
X155405566Y-103308405D01*
X155386423Y-103349865D01*
X155379909Y-103397348D01*
X155223652Y-103397348D01*
X155230714Y-103317404D01*
X155251215Y-103246720D01*
X155284632Y-103184095D01*
X155331610Y-103128192D01*
X155388666Y-103082476D01*
X155452228Y-103049900D01*
X155523583Y-103029915D01*
X155604490Y-103022984D01*
X155686072Y-103029975D01*
G37*
G36*
X155970000Y-102431795D02*
G01*
X155914068Y-102450235D01*
X155891842Y-102457074D01*
X155935149Y-102508766D01*
X155965115Y-102562281D01*
X155983374Y-102619878D01*
X155989539Y-102681838D01*
X155985294Y-102737594D01*
X155973324Y-102784658D01*
X155954335Y-102824546D01*
X155928417Y-102858426D01*
X155895810Y-102886682D01*
X155859719Y-102906623D01*
X155819418Y-102918770D01*
X155773872Y-102922967D01*
X155733509Y-102919591D01*
X155697012Y-102909760D01*
X155663658Y-102893597D01*
X155633993Y-102871481D01*
X155609399Y-102844242D01*
X155589530Y-102811287D01*
X155567004Y-102752022D01*
X155544528Y-102658635D01*
X155517401Y-102534776D01*
X155497145Y-102472156D01*
X155622198Y-102472156D01*
X155651690Y-102588965D01*
X155670842Y-102661559D01*
X155685334Y-102693501D01*
X155705375Y-102714843D01*
X155727679Y-102726977D01*
X155753234Y-102731053D01*
X155779021Y-102727719D01*
X155802108Y-102717866D01*
X155823271Y-102701011D01*
X155839507Y-102679426D01*
X155849336Y-102654271D01*
X155852763Y-102624502D01*
X155849070Y-102590962D01*
X155837863Y-102558170D01*
X155818447Y-102525462D01*
X155789044Y-102496284D01*
X155754638Y-102479666D01*
X155724377Y-102474523D01*
X155660605Y-102472156D01*
X155622198Y-102472156D01*
X155497145Y-102472156D01*
X155477484Y-102472156D01*
X155440553Y-102475743D01*
X155414451Y-102485208D01*
X155396334Y-102499511D01*
X155384271Y-102519526D01*
X155375573Y-102552144D01*
X155372093Y-102602643D01*
X155377812Y-102650152D01*
X155392915Y-102682571D01*
X155419421Y-102707119D01*
X155465882Y-102728977D01*
X155434619Y-102903183D01*
X155366493Y-102877612D01*
X155314345Y-102843850D01*
X155275312Y-102802128D01*
X155254384Y-102765717D01*
X155238183Y-102719532D01*
X155227501Y-102661445D01*
X155223593Y-102588965D01*
X155227780Y-102502930D01*
X155238665Y-102441008D01*
X155254185Y-102397723D01*
X155277601Y-102358291D01*
X155303466Y-102329392D01*
X155331854Y-102309246D01*
X155364976Y-102296739D01*
X155419732Y-102287381D01*
X155504717Y-102283600D01*
X155730153Y-102285615D01*
X155820013Y-102282876D01*
X155872058Y-102276395D01*
X155918026Y-102263645D01*
X155970000Y-102241896D01*
X155970000Y-102431795D01*
G37*
G36*
X155970000Y-101911008D02*
G01*
X155970000Y-102102983D01*
X155243133Y-102102983D01*
X155243133Y-101924685D01*
X155346264Y-101924685D01*
X155281009Y-101877583D01*
X155248384Y-101842376D01*
X155229867Y-101803596D01*
X155223593Y-101759394D01*
X155227531Y-101716626D01*
X155239417Y-101674701D01*
X155259741Y-101632998D01*
X155426926Y-101692411D01*
X155402738Y-101741100D01*
X155395540Y-101782597D01*
X155401309Y-101820331D01*
X155417950Y-101850924D01*
X155446543Y-101874347D01*
X155498855Y-101894949D01*
X155573211Y-101905815D01*
X155744075Y-101911008D01*
X155970000Y-101911008D01*
G37*
G36*
X155970000Y-101063546D02*
G01*
X155863449Y-101063546D01*
X155902235Y-101095593D01*
X155933375Y-101130467D01*
X155957604Y-101168387D01*
X155981763Y-101229896D01*
X155989539Y-101290326D01*
X155983227Y-101350351D01*
X155964618Y-101405242D01*
X155933308Y-101456327D01*
X155887751Y-101504466D01*
X155834836Y-101541801D01*
X155771352Y-101569564D01*
X155695213Y-101587280D01*
X155603818Y-101593614D01*
X155509794Y-101587298D01*
X155433208Y-101569822D01*
X155370962Y-101542779D01*
X155320558Y-101506847D01*
X155277858Y-101460229D01*
X155247950Y-101408906D01*
X155229833Y-101351860D01*
X155223593Y-101287578D01*
X155228985Y-101237020D01*
X155372093Y-101237020D01*
X155378222Y-101280019D01*
X155396301Y-101317652D01*
X155427475Y-101351448D01*
X155467075Y-101375602D01*
X155520810Y-101391580D01*
X155592950Y-101397548D01*
X155672160Y-101393086D01*
X155727310Y-101381626D01*
X155764408Y-101365430D01*
X155798850Y-101339002D01*
X155822264Y-101309107D01*
X155836228Y-101275105D01*
X155841039Y-101235676D01*
X155834800Y-101194134D01*
X155816175Y-101157046D01*
X155783581Y-101122958D01*
X155742572Y-101098659D01*
X155686798Y-101082527D01*
X155611817Y-101076491D01*
X155527437Y-101082632D01*
X155468403Y-101098550D01*
X155428208Y-101121615D01*
X155396745Y-101154879D01*
X155378372Y-101192787D01*
X155372093Y-101237020D01*
X155228985Y-101237020D01*
X155229810Y-101229281D01*
X155248207Y-101175553D01*
X155279295Y-101125122D01*
X155324710Y-101077163D01*
X154965673Y-101077163D01*
X154965673Y-100885249D01*
X155970000Y-100885249D01*
X155970000Y-101063546D01*
G37*
G36*
X157650000Y-116142733D02*
G01*
X156645673Y-116500671D01*
X156645673Y-116281402D01*
X157388171Y-116027939D01*
X156645673Y-115782719D01*
X156645673Y-115568213D01*
X157650000Y-115926884D01*
X157650000Y-116142733D01*
G37*
G36*
X157341277Y-115403044D02*
G01*
X157396333Y-115396383D01*
X157439639Y-115380613D01*
X157473717Y-115356577D01*
X157500063Y-115324462D01*
X157515677Y-115288060D01*
X157521039Y-115245935D01*
X157514800Y-115203714D01*
X157496981Y-115170097D01*
X157467351Y-115144180D01*
X157419434Y-115123630D01*
X157450697Y-114932388D01*
X157518081Y-114962718D01*
X157571703Y-115001509D01*
X157613607Y-115048892D01*
X157643893Y-115104435D01*
X157662836Y-115170029D01*
X157669539Y-115248011D01*
X157663911Y-115323896D01*
X157648039Y-115388070D01*
X157622886Y-115442533D01*
X157588633Y-115488849D01*
X157544670Y-115528035D01*
X157493307Y-115558487D01*
X157434917Y-115580852D01*
X157368313Y-115594867D01*
X157292062Y-115599781D01*
X157201047Y-115593157D01*
X157124766Y-115574555D01*
X157060678Y-115545231D01*
X157006786Y-115505504D01*
X156961447Y-115454985D01*
X156929597Y-115399243D01*
X156910261Y-115337165D01*
X156903593Y-115267123D01*
X156904656Y-115255460D01*
X157052093Y-115255460D01*
X157057336Y-115295313D01*
X157072587Y-115329454D01*
X157098377Y-115359324D01*
X157131423Y-115381312D01*
X157172563Y-115395006D01*
X157224040Y-115399624D01*
X157224040Y-115112700D01*
X157169331Y-115119071D01*
X157127595Y-115133780D01*
X157095935Y-115155748D01*
X157071385Y-115185348D01*
X157056990Y-115218183D01*
X157052093Y-115255460D01*
X156904656Y-115255460D01*
X156910825Y-115187797D01*
X156931426Y-115120164D01*
X156964712Y-115061967D01*
X157011304Y-115011645D01*
X157054714Y-114980567D01*
X157107549Y-114955424D01*
X157171504Y-114936633D01*
X157248633Y-114925093D01*
X157341277Y-114922130D01*
X157341277Y-115403044D01*
G37*
G36*
X157650000Y-114582327D02*
G01*
X157650000Y-114774302D01*
X156923133Y-114774302D01*
X156923133Y-114596004D01*
X157026264Y-114596004D01*
X156961009Y-114548902D01*
X156928384Y-114513695D01*
X156909867Y-114474915D01*
X156903593Y-114430713D01*
X156907531Y-114387945D01*
X156919417Y-114346020D01*
X156939741Y-114304317D01*
X157106926Y-114363729D01*
X157082738Y-114412419D01*
X157075540Y-114453916D01*
X157081309Y-114491650D01*
X157097950Y-114522243D01*
X157126543Y-114545666D01*
X157178855Y-114566268D01*
X157253211Y-114577134D01*
X157424075Y-114582327D01*
X157650000Y-114582327D01*
G37*
G36*
X157442882Y-114289541D02*
G01*
X157419434Y-114096894D01*
X157454665Y-114085402D01*
X157482391Y-114068771D01*
X157503942Y-114047069D01*
X157519205Y-114020480D01*
X157529124Y-113986113D01*
X157532763Y-113941861D01*
X157529098Y-113892767D01*
X157519347Y-113856391D01*
X157504797Y-113829815D01*
X157482035Y-113810899D01*
X157452468Y-113804535D01*
X157431732Y-113808054D01*
X157415404Y-113818213D01*
X157403557Y-113837607D01*
X157389576Y-113882388D01*
X157349434Y-114040154D01*
X157318152Y-114130878D01*
X157294321Y-114176823D01*
X157261231Y-114214903D01*
X157223386Y-114241329D01*
X157179856Y-114257349D01*
X157129030Y-114262918D01*
X157083005Y-114258221D01*
X157041573Y-114244478D01*
X157003675Y-114221558D01*
X156968623Y-114188485D01*
X156942211Y-114149998D01*
X156921898Y-114100483D01*
X156908508Y-114037374D01*
X156903593Y-113957554D01*
X156907409Y-113880687D01*
X156917752Y-113820039D01*
X156933254Y-113772729D01*
X156952991Y-113736270D01*
X156990333Y-113693714D01*
X157038316Y-113660527D01*
X157098988Y-113636496D01*
X157134159Y-113817480D01*
X157093394Y-113834716D01*
X157064549Y-113861566D01*
X157051830Y-113884459D01*
X157043465Y-113914641D01*
X157040369Y-113954134D01*
X157043393Y-114004779D01*
X157051130Y-114039630D01*
X157062046Y-114062761D01*
X157079885Y-114079286D01*
X157101796Y-114084621D01*
X157120888Y-114080016D01*
X157137456Y-114065509D01*
X157155910Y-114023638D01*
X157192655Y-113886174D01*
X157221487Y-113784297D01*
X157250680Y-113715708D01*
X157279361Y-113672034D01*
X157317546Y-113639155D01*
X157364745Y-113619033D01*
X157423709Y-113611889D01*
X157472052Y-113617033D01*
X157516408Y-113632227D01*
X157557847Y-113657854D01*
X157597060Y-113695237D01*
X157626886Y-113738391D01*
X157649500Y-113792253D01*
X157664202Y-113859134D01*
X157669539Y-113941861D01*
X157665160Y-114016839D01*
X157652922Y-114079737D01*
X157633858Y-114132433D01*
X157608539Y-114176517D01*
X157575174Y-114216118D01*
X157536844Y-114247824D01*
X157493030Y-114272250D01*
X157442882Y-114289541D01*
G37*
G36*
X156821528Y-113444216D02*
G01*
X156645673Y-113444216D01*
X156645673Y-113252302D01*
X156821528Y-113252302D01*
X156821528Y-113444216D01*
G37*
G36*
X157650000Y-113444216D02*
G01*
X156923133Y-113444216D01*
X156923133Y-113252302D01*
X157650000Y-113252302D01*
X157650000Y-113444216D01*
G37*
G36*
X157366072Y-112358098D02*
G01*
X157438121Y-112378268D01*
X157502394Y-112411165D01*
X157560179Y-112457353D01*
X157607992Y-112513840D01*
X157641799Y-112576332D01*
X157662415Y-112646068D01*
X157669539Y-112724799D01*
X157664485Y-112790209D01*
X157649387Y-112853389D01*
X157623988Y-112915064D01*
X157588674Y-112970877D01*
X157544461Y-113016417D01*
X157490509Y-113052695D01*
X157430107Y-113078089D01*
X157359336Y-113094145D01*
X157276186Y-113099834D01*
X157212901Y-113094666D01*
X157150826Y-113079110D01*
X157089218Y-113052695D01*
X157033289Y-113016564D01*
X156987628Y-112972282D01*
X156951221Y-112919155D01*
X156924982Y-112859956D01*
X156909046Y-112795972D01*
X156903593Y-112726142D01*
X156903652Y-112725471D01*
X157059909Y-112725471D01*
X157066415Y-112772967D01*
X157085554Y-112814555D01*
X157118344Y-112851866D01*
X157160200Y-112879045D01*
X157215023Y-112896632D01*
X157286566Y-112903096D01*
X157358110Y-112896634D01*
X157412955Y-112879048D01*
X157454849Y-112851866D01*
X157487603Y-112814560D01*
X157506723Y-112772971D01*
X157513224Y-112725471D01*
X157506715Y-112677984D01*
X157487590Y-112636523D01*
X157454849Y-112599441D01*
X157412957Y-112572487D01*
X157357696Y-112554974D01*
X157285162Y-112548517D01*
X157214557Y-112554918D01*
X157160152Y-112572381D01*
X157118344Y-112599441D01*
X157085566Y-112636528D01*
X157066423Y-112677988D01*
X157059909Y-112725471D01*
X156903652Y-112725471D01*
X156910714Y-112645527D01*
X156931215Y-112574843D01*
X156964632Y-112512218D01*
X157011610Y-112456315D01*
X157068666Y-112410599D01*
X157132228Y-112378023D01*
X157203583Y-112358038D01*
X157284490Y-112351107D01*
X157366072Y-112358098D01*
G37*
G36*
X157650000Y-111540648D02*
G01*
X157650000Y-111732623D01*
X157277957Y-111732623D01*
X157170138Y-111736662D01*
X157125244Y-111744958D01*
X157094126Y-111761299D01*
X157071327Y-111784891D01*
X157057079Y-111814767D01*
X157052093Y-111851509D01*
X157059019Y-111898967D01*
X157079570Y-111940963D01*
X157111512Y-111974402D01*
X157152294Y-111995307D01*
X157207163Y-112005377D01*
X157319783Y-112009961D01*
X157650000Y-112009961D01*
X157650000Y-112201936D01*
X156923133Y-112201936D01*
X156923133Y-112023639D01*
X157029684Y-112023639D01*
X156982820Y-111982152D01*
X156947849Y-111938068D01*
X156923364Y-111890979D01*
X156908622Y-111840140D01*
X156903593Y-111784525D01*
X156909492Y-111723033D01*
X156926613Y-111668449D01*
X156953758Y-111620971D01*
X156985415Y-111588825D01*
X157023351Y-111566034D01*
X157066503Y-111551273D01*
X157116755Y-111543726D01*
X157196379Y-111540648D01*
X157650000Y-111540648D01*
G37*
G36*
X157114619Y-111308801D02*
G01*
X156923133Y-111308801D01*
X156923133Y-111116887D01*
X157114619Y-111116887D01*
X157114619Y-111308801D01*
G37*
G36*
X157650000Y-111308801D02*
G01*
X157458513Y-111308801D01*
X157458513Y-111116887D01*
X157650000Y-111116887D01*
X157650000Y-111308801D01*
G37*
G36*
X157650000Y-110291407D02*
G01*
X156923133Y-110583766D01*
X156923133Y-110382266D01*
X157294077Y-110245612D01*
X157417969Y-110205983D01*
X157355687Y-110186200D01*
X157294077Y-110165683D01*
X156923133Y-110027686D01*
X156923133Y-109830277D01*
X157650000Y-110118545D01*
X157650000Y-110291407D01*
G37*
G36*
X157650000Y-109263023D02*
G01*
X157650000Y-109454998D01*
X156928628Y-109454998D01*
X156988851Y-109528943D01*
X157037728Y-109611266D01*
X157075540Y-109702965D01*
X156899685Y-109702965D01*
X156879883Y-109654559D01*
X156849411Y-109600441D01*
X156806263Y-109539689D01*
X156756516Y-109485899D01*
X156703185Y-109446116D01*
X156645673Y-109418789D01*
X156645673Y-109263023D01*
X157650000Y-109263023D01*
G37*
G36*
X157650000Y-108935493D02*
G01*
X157458513Y-108935493D01*
X157458513Y-108743579D01*
X157650000Y-108743579D01*
X157650000Y-108935493D01*
G37*
G36*
X157278779Y-107943065D02*
G01*
X157376713Y-107956922D01*
X157455342Y-107977871D01*
X157517847Y-108004621D01*
X157566957Y-108036374D01*
X157611529Y-108080640D01*
X157643164Y-108132122D01*
X157662684Y-108192254D01*
X157669539Y-108263215D01*
X157662280Y-108333830D01*
X157641295Y-108395490D01*
X157606676Y-108450113D01*
X157557065Y-108498909D01*
X157513100Y-108527057D01*
X157454643Y-108551256D01*
X157378318Y-108570571D01*
X157280203Y-108583560D01*
X157155896Y-108588363D01*
X157035732Y-108583313D01*
X156938210Y-108569473D01*
X156859807Y-108548537D01*
X156797386Y-108521781D01*
X156748255Y-108489994D01*
X156703680Y-108445728D01*
X156672045Y-108394255D01*
X156652526Y-108334143D01*
X156645673Y-108263215D01*
X156805896Y-108263215D01*
X156811421Y-108296112D01*
X156828061Y-108325375D01*
X156856292Y-108348124D01*
X156907562Y-108367751D01*
X156994611Y-108381507D01*
X157157972Y-108387534D01*
X157320266Y-108381986D01*
X157399834Y-108369766D01*
X157442997Y-108355152D01*
X157470830Y-108340104D01*
X157487517Y-108325008D01*
X157503862Y-108296078D01*
X157509316Y-108263215D01*
X157503786Y-108230275D01*
X157487151Y-108201055D01*
X157458913Y-108178258D01*
X157407650Y-108158618D01*
X157321199Y-108144873D01*
X157157972Y-108138834D01*
X156995632Y-108144384D01*
X156916111Y-108156603D01*
X156857287Y-108178707D01*
X156828061Y-108201360D01*
X156811435Y-108230325D01*
X156805896Y-108263215D01*
X156645673Y-108263215D01*
X156652592Y-108192351D01*
X156672328Y-108132123D01*
X156704386Y-108080375D01*
X156749659Y-108035703D01*
X156798180Y-108004250D01*
X156860242Y-107977699D01*
X156938649Y-107956863D01*
X157036670Y-107943055D01*
X157157972Y-107938005D01*
X157278779Y-107943065D01*
G37*
G36*
X157650000Y-107768989D02*
G01*
X157458513Y-107768989D01*
X157458513Y-107577076D01*
X157650000Y-107577076D01*
X157650000Y-107768989D01*
G37*
G36*
X157278779Y-106776561D02*
G01*
X157376713Y-106790418D01*
X157455342Y-106811367D01*
X157517847Y-106838117D01*
X157566957Y-106869870D01*
X157611529Y-106914136D01*
X157643164Y-106965618D01*
X157662684Y-107025750D01*
X157669539Y-107096711D01*
X157662280Y-107167326D01*
X157641295Y-107228986D01*
X157606676Y-107283609D01*
X157557065Y-107332405D01*
X157513100Y-107360553D01*
X157454643Y-107384753D01*
X157378318Y-107404067D01*
X157280203Y-107417056D01*
X157155896Y-107421859D01*
X157035732Y-107416809D01*
X156938210Y-107402969D01*
X156859807Y-107382034D01*
X156797386Y-107355278D01*
X156748255Y-107323490D01*
X156703680Y-107279224D01*
X156672045Y-107227751D01*
X156652526Y-107167639D01*
X156645673Y-107096711D01*
X156805896Y-107096711D01*
X156811421Y-107129608D01*
X156828061Y-107158871D01*
X156856292Y-107181621D01*
X156907562Y-107201247D01*
X156994611Y-107215003D01*
X157157972Y-107221031D01*
X157320266Y-107215482D01*
X157399834Y-107203262D01*
X157442997Y-107188648D01*
X157470830Y-107173600D01*
X157487517Y-107158504D01*
X157503862Y-107129574D01*
X157509316Y-107096711D01*
X157503786Y-107063771D01*
X157487151Y-107034551D01*
X157458913Y-107011754D01*
X157407650Y-106992114D01*
X157321199Y-106978369D01*
X157157972Y-106972330D01*
X156995632Y-106977880D01*
X156916111Y-106990099D01*
X156857287Y-107012203D01*
X156828061Y-107034856D01*
X156811435Y-107063821D01*
X156805896Y-107096711D01*
X156645673Y-107096711D01*
X156652592Y-107025847D01*
X156672328Y-106965619D01*
X156704386Y-106913871D01*
X156749659Y-106869199D01*
X156798180Y-106837747D01*
X156860242Y-106811195D01*
X156938649Y-106790360D01*
X157036670Y-106776551D01*
X157157972Y-106771502D01*
X157278779Y-106776561D01*
G37*
G36*
X158919848Y-115563104D02*
G01*
X158990596Y-115573635D01*
X159051196Y-115590073D01*
X159121616Y-115619725D01*
X159180228Y-115655546D01*
X159228578Y-115697356D01*
X159259172Y-115734801D01*
X159285995Y-115781625D01*
X159308750Y-115839445D01*
X159324009Y-115912153D01*
X159330000Y-116018414D01*
X159330000Y-116398883D01*
X158325673Y-116398883D01*
X158325673Y-116105853D01*
X158493712Y-116105853D01*
X158493712Y-116196711D01*
X159161960Y-116196711D01*
X159161960Y-116045708D01*
X159159050Y-115966899D01*
X159152313Y-115923464D01*
X159135246Y-115877708D01*
X159110364Y-115841826D01*
X159088644Y-115823056D01*
X159057080Y-115805290D01*
X159012972Y-115788886D01*
X158938955Y-115774201D01*
X158828203Y-115768370D01*
X158718099Y-115774302D01*
X158648562Y-115788886D01*
X158591211Y-115814414D01*
X158550865Y-115846284D01*
X158521821Y-115887351D01*
X158503360Y-115939829D01*
X158496778Y-115992277D01*
X158493712Y-116105853D01*
X158325673Y-116105853D01*
X158325673Y-116029344D01*
X158331249Y-115911807D01*
X158344846Y-115838773D01*
X158366772Y-115782632D01*
X158397461Y-115732554D01*
X158437353Y-115687770D01*
X158484157Y-115649777D01*
X158538101Y-115617895D01*
X158600080Y-115592149D01*
X158665058Y-115574765D01*
X158743424Y-115563442D01*
X158837423Y-115559359D01*
X158919848Y-115563104D01*
G37*
G36*
X159330000Y-114948752D02*
G01*
X159274068Y-114967192D01*
X159251842Y-114974031D01*
X159295149Y-115025724D01*
X159325115Y-115079239D01*
X159343374Y-115136836D01*
X159349539Y-115198796D01*
X159345294Y-115254551D01*
X159333324Y-115301616D01*
X159314335Y-115341504D01*
X159288417Y-115375383D01*
X159255810Y-115403639D01*
X159219719Y-115423580D01*
X159179418Y-115435728D01*
X159133872Y-115439924D01*
X159093509Y-115436548D01*
X159057012Y-115426718D01*
X159023658Y-115410554D01*
X158993993Y-115388439D01*
X158969399Y-115361199D01*
X158949530Y-115328244D01*
X158927004Y-115268979D01*
X158904528Y-115175593D01*
X158877401Y-115051733D01*
X158857145Y-114989113D01*
X158982198Y-114989113D01*
X159011690Y-115105922D01*
X159030842Y-115178517D01*
X159045334Y-115210458D01*
X159065375Y-115231800D01*
X159087679Y-115243934D01*
X159113234Y-115248011D01*
X159139021Y-115244677D01*
X159162108Y-115234823D01*
X159183271Y-115217969D01*
X159199507Y-115196384D01*
X159209336Y-115171229D01*
X159212763Y-115141460D01*
X159209070Y-115107920D01*
X159197863Y-115075127D01*
X159178447Y-115042419D01*
X159149044Y-115013242D01*
X159114638Y-114996624D01*
X159084377Y-114991481D01*
X159020605Y-114989113D01*
X158982198Y-114989113D01*
X158857145Y-114989113D01*
X158837484Y-114989113D01*
X158800553Y-114992700D01*
X158774451Y-115002166D01*
X158756334Y-115016468D01*
X158744271Y-115036483D01*
X158735573Y-115069102D01*
X158732093Y-115119600D01*
X158737812Y-115167109D01*
X158752915Y-115199528D01*
X158779421Y-115224077D01*
X158825882Y-115245935D01*
X158794619Y-115420141D01*
X158726493Y-115394569D01*
X158674345Y-115360808D01*
X158635312Y-115319085D01*
X158614384Y-115282675D01*
X158598183Y-115236490D01*
X158587501Y-115178403D01*
X158583593Y-115105922D01*
X158587780Y-115019888D01*
X158598665Y-114957965D01*
X158614185Y-114914680D01*
X158637601Y-114875249D01*
X158663466Y-114846350D01*
X158691854Y-114826203D01*
X158724976Y-114813696D01*
X158779732Y-114804338D01*
X158864717Y-114800558D01*
X159090153Y-114802573D01*
X159180013Y-114799833D01*
X159232058Y-114793353D01*
X159278026Y-114780603D01*
X159330000Y-114758853D01*
X159330000Y-114948752D01*
G37*
G36*
X158603133Y-114279038D02*
G01*
X158755540Y-114279038D01*
X158755540Y-114410197D01*
X159050708Y-114410197D01*
X159155183Y-114406472D01*
X159168613Y-114400382D01*
X159179668Y-114389375D01*
X159186809Y-114374914D01*
X159189316Y-114356891D01*
X159185513Y-114327777D01*
X159170875Y-114279710D01*
X159320657Y-114263346D01*
X159336400Y-114308804D01*
X159346157Y-114359107D01*
X159349539Y-114415020D01*
X159344992Y-114465166D01*
X159331953Y-114508627D01*
X159310954Y-114545838D01*
X159286463Y-114569748D01*
X159255356Y-114585573D01*
X159211053Y-114596676D01*
X159168756Y-114600868D01*
X159074583Y-114602843D01*
X158755540Y-114602843D01*
X158755540Y-114690954D01*
X158603133Y-114690954D01*
X158603133Y-114602843D01*
X158462449Y-114602843D01*
X158349120Y-114410197D01*
X158603133Y-114410197D01*
X158603133Y-114279038D01*
G37*
G36*
X159330000Y-113705068D02*
G01*
X159274068Y-113723508D01*
X159251842Y-113730347D01*
X159295149Y-113782039D01*
X159325115Y-113835554D01*
X159343374Y-113893151D01*
X159349539Y-113955111D01*
X159345294Y-114010867D01*
X159333324Y-114057931D01*
X159314335Y-114097819D01*
X159288417Y-114131699D01*
X159255810Y-114159955D01*
X159219719Y-114179896D01*
X159179418Y-114192043D01*
X159133872Y-114196240D01*
X159093509Y-114192864D01*
X159057012Y-114183033D01*
X159023658Y-114166870D01*
X158993993Y-114144754D01*
X158969399Y-114117514D01*
X158949530Y-114084560D01*
X158927004Y-114025295D01*
X158904528Y-113931908D01*
X158877401Y-113808049D01*
X158857145Y-113745429D01*
X158982198Y-113745429D01*
X159011690Y-113862238D01*
X159030842Y-113934832D01*
X159045334Y-113966774D01*
X159065375Y-113988116D01*
X159087679Y-114000249D01*
X159113234Y-114004326D01*
X159139021Y-114000992D01*
X159162108Y-113991139D01*
X159183271Y-113974284D01*
X159199507Y-113952699D01*
X159209336Y-113927544D01*
X159212763Y-113897775D01*
X159209070Y-113864235D01*
X159197863Y-113831442D01*
X159178447Y-113798735D01*
X159149044Y-113769557D01*
X159114638Y-113752939D01*
X159084377Y-113747796D01*
X159020605Y-113745429D01*
X158982198Y-113745429D01*
X158857145Y-113745429D01*
X158837484Y-113745429D01*
X158800553Y-113749016D01*
X158774451Y-113758481D01*
X158756334Y-113772784D01*
X158744271Y-113792799D01*
X158735573Y-113825417D01*
X158732093Y-113875915D01*
X158737812Y-113923425D01*
X158752915Y-113955844D01*
X158779421Y-113980392D01*
X158825882Y-114002250D01*
X158794619Y-114176456D01*
X158726493Y-114150885D01*
X158674345Y-114117123D01*
X158635312Y-114075401D01*
X158614384Y-114038990D01*
X158598183Y-113992805D01*
X158587501Y-113934718D01*
X158583593Y-113862238D01*
X158587780Y-113776203D01*
X158598665Y-113714280D01*
X158614185Y-113670996D01*
X158637601Y-113631564D01*
X158663466Y-113602665D01*
X158691854Y-113582519D01*
X158724976Y-113570012D01*
X158779732Y-113560654D01*
X158864717Y-113556873D01*
X159090153Y-113558888D01*
X159180013Y-113556149D01*
X159232058Y-113549668D01*
X159278026Y-113536918D01*
X159330000Y-113515169D01*
X159330000Y-113705068D01*
G37*
G36*
X158794619Y-113331132D02*
G01*
X158603133Y-113331132D01*
X158603133Y-113139218D01*
X158794619Y-113139218D01*
X158794619Y-113331132D01*
G37*
G36*
X159330000Y-113331132D02*
G01*
X159138513Y-113331132D01*
X159138513Y-113139218D01*
X159330000Y-113139218D01*
X159330000Y-113331132D01*
G37*
G36*
X159150237Y-111905914D02*
G01*
X159330000Y-111905914D01*
X159330000Y-112578742D01*
X159264273Y-112566678D01*
X159200789Y-112544955D01*
X159138941Y-112513162D01*
X159081194Y-112472173D01*
X159003102Y-112403268D01*
X158899460Y-112297313D01*
X158786661Y-112181480D01*
X158735940Y-112138189D01*
X158695058Y-112115500D01*
X158656266Y-112102686D01*
X158618764Y-112098560D01*
X158577427Y-112102817D01*
X158545319Y-112114542D01*
X158520334Y-112133060D01*
X158501704Y-112158047D01*
X158490069Y-112189225D01*
X158485896Y-112228375D01*
X158490208Y-112266919D01*
X158502366Y-112298255D01*
X158522105Y-112323996D01*
X158548601Y-112342873D01*
X158587285Y-112356989D01*
X158642212Y-112364968D01*
X158623100Y-112556210D01*
X158543903Y-112541686D01*
X158481419Y-112518384D01*
X158432533Y-112487428D01*
X158394916Y-112448988D01*
X158365306Y-112402406D01*
X158343757Y-112350020D01*
X158330351Y-112290819D01*
X158325673Y-112223551D01*
X158331230Y-112149683D01*
X158346875Y-112087517D01*
X158371638Y-112035018D01*
X158405357Y-111990605D01*
X158447901Y-111953339D01*
X158494455Y-111927193D01*
X158545897Y-111911359D01*
X158603499Y-111905914D01*
X158669506Y-111912014D01*
X158731849Y-111930155D01*
X158792070Y-111960205D01*
X158859466Y-112007030D01*
X158907424Y-112049951D01*
X158986838Y-112132693D01*
X159097114Y-112247793D01*
X159150237Y-112287055D01*
X159150237Y-111905914D01*
G37*
G36*
X159105476Y-111126620D02*
G01*
X159164731Y-111143503D01*
X159216790Y-111170892D01*
X159262833Y-111209211D01*
X159300000Y-111255867D01*
X159326890Y-111309649D01*
X159343648Y-111371929D01*
X159349539Y-111444539D01*
X159344703Y-111512381D01*
X159330838Y-111572090D01*
X159308522Y-111624950D01*
X159277793Y-111671990D01*
X159231625Y-111718816D01*
X159178572Y-111751859D01*
X159117264Y-111772129D01*
X159045579Y-111779213D01*
X158992507Y-111774670D01*
X158943034Y-111761265D01*
X158896346Y-111738913D01*
X158855497Y-111707850D01*
X158820608Y-111666119D01*
X158791505Y-111611845D01*
X158766820Y-111658636D01*
X158737992Y-111694120D01*
X158704982Y-111720106D01*
X158667083Y-111738902D01*
X158627070Y-111750135D01*
X158584265Y-111753934D01*
X158529588Y-111748851D01*
X158481241Y-111734140D01*
X158437965Y-111709980D01*
X158398885Y-111675715D01*
X158368205Y-111634785D01*
X158345428Y-111585311D01*
X158330884Y-111525561D01*
X158325673Y-111453332D01*
X158325815Y-111451378D01*
X158478080Y-111451378D01*
X158482012Y-111486896D01*
X158493091Y-111515773D01*
X158511053Y-111539488D01*
X158534806Y-111557399D01*
X158563390Y-111568394D01*
X158598187Y-111572278D01*
X158635301Y-111568336D01*
X158664705Y-111557371D01*
X158688129Y-111539855D01*
X158705713Y-111516410D01*
X158716538Y-111488055D01*
X158720369Y-111453393D01*
X158720065Y-111450645D01*
X158872777Y-111450645D01*
X158878629Y-111495019D01*
X158894953Y-111529124D01*
X158921687Y-111555486D01*
X158955554Y-111574818D01*
X158990678Y-111586182D01*
X159027749Y-111589986D01*
X159079517Y-111584977D01*
X159120253Y-111571151D01*
X159152374Y-111549380D01*
X159177349Y-111519856D01*
X159192084Y-111486473D01*
X159197131Y-111447897D01*
X159192246Y-111410195D01*
X159178046Y-111377874D01*
X159154084Y-111349590D01*
X159123117Y-111328886D01*
X159082606Y-111315533D01*
X159029764Y-111310633D01*
X158984031Y-111315379D01*
X158946650Y-111328738D01*
X158915825Y-111350261D01*
X158891911Y-111379024D01*
X158877684Y-111412027D01*
X158872777Y-111450645D01*
X158720065Y-111450645D01*
X158716491Y-111418299D01*
X158705541Y-111389627D01*
X158687763Y-111365954D01*
X158664124Y-111348213D01*
X158634607Y-111337136D01*
X158597515Y-111333164D01*
X158562704Y-111337024D01*
X158534230Y-111347928D01*
X158510687Y-111365648D01*
X158492858Y-111389069D01*
X158481934Y-111417195D01*
X158478080Y-111451378D01*
X158325815Y-111451378D01*
X158330854Y-111381896D01*
X158345353Y-111322467D01*
X158368127Y-111272945D01*
X158398885Y-111231681D01*
X158438006Y-111197093D01*
X158481296Y-111172731D01*
X158529627Y-111157909D01*
X158584265Y-111152791D01*
X158629648Y-111156927D01*
X158670730Y-111169006D01*
X158708401Y-111189000D01*
X158741411Y-111216025D01*
X158769035Y-111249654D01*
X158791505Y-111290788D01*
X158818051Y-111238363D01*
X158850570Y-111196625D01*
X158889202Y-111164087D01*
X158933704Y-111140201D01*
X158982724Y-111125714D01*
X159037397Y-111120734D01*
X159105476Y-111126620D01*
G37*
G36*
X159345631Y-111060345D02*
G01*
X158310041Y-110812316D01*
X158310041Y-110668213D01*
X159345631Y-110918928D01*
X159345631Y-111060345D01*
G37*
G36*
X158958779Y-109965396D02*
G01*
X159056713Y-109979253D01*
X159135342Y-110000201D01*
X159197847Y-110026952D01*
X159246957Y-110058705D01*
X159291529Y-110102971D01*
X159323164Y-110154453D01*
X159342684Y-110214585D01*
X159349539Y-110285546D01*
X159342280Y-110356161D01*
X159321295Y-110417820D01*
X159286676Y-110472444D01*
X159237065Y-110521240D01*
X159193100Y-110549388D01*
X159134643Y-110573587D01*
X159058318Y-110592902D01*
X158960203Y-110605891D01*
X158835896Y-110610694D01*
X158715732Y-110605644D01*
X158618210Y-110591804D01*
X158539807Y-110570868D01*
X158477386Y-110544112D01*
X158428255Y-110512325D01*
X158383680Y-110468059D01*
X158352045Y-110416586D01*
X158332526Y-110356474D01*
X158325673Y-110285546D01*
X158485896Y-110285546D01*
X158491421Y-110318443D01*
X158508061Y-110347705D01*
X158536292Y-110370455D01*
X158587562Y-110390081D01*
X158674611Y-110403838D01*
X158837972Y-110409865D01*
X159000266Y-110404317D01*
X159079834Y-110392096D01*
X159122997Y-110377483D01*
X159150830Y-110362435D01*
X159167517Y-110347339D01*
X159183862Y-110318409D01*
X159189316Y-110285546D01*
X159183786Y-110252606D01*
X159167151Y-110223386D01*
X159138913Y-110200588D01*
X159087650Y-110180949D01*
X159001199Y-110167203D01*
X158837972Y-110161165D01*
X158675632Y-110166715D01*
X158596111Y-110178934D01*
X158537287Y-110201037D01*
X158508061Y-110223691D01*
X158491435Y-110252656D01*
X158485896Y-110285546D01*
X158325673Y-110285546D01*
X158332592Y-110214682D01*
X158352328Y-110154453D01*
X158384386Y-110102705D01*
X158429659Y-110058033D01*
X158478180Y-110026581D01*
X158540242Y-110000030D01*
X158618649Y-109979194D01*
X158716670Y-109965385D01*
X158837972Y-109960336D01*
X158958779Y-109965396D01*
G37*
G36*
X159126789Y-109270106D02*
G01*
X159330000Y-109270106D01*
X159330000Y-109455914D01*
X159126789Y-109455914D01*
X159126789Y-109865814D01*
X158959422Y-109865814D01*
X158361481Y-109455914D01*
X158622794Y-109455914D01*
X158958750Y-109686174D01*
X158958750Y-109455914D01*
X158622794Y-109455914D01*
X158361481Y-109455914D01*
X158325673Y-109431367D01*
X158325673Y-109270106D01*
X158958750Y-109270106D01*
X158958750Y-109145786D01*
X159126789Y-109145786D01*
X159126789Y-109270106D01*
G37*
G36*
X159345631Y-109116172D02*
G01*
X158310041Y-108868143D01*
X158310041Y-108724040D01*
X159345631Y-108974755D01*
X159345631Y-109116172D01*
G37*
G36*
X159150237Y-108017568D02*
G01*
X159330000Y-108017568D01*
X159330000Y-108690396D01*
X159264273Y-108678332D01*
X159200789Y-108656609D01*
X159138941Y-108624816D01*
X159081194Y-108583826D01*
X159003102Y-108514922D01*
X158899460Y-108408967D01*
X158786661Y-108293134D01*
X158735940Y-108249842D01*
X158695058Y-108227154D01*
X158656266Y-108214340D01*
X158618764Y-108210214D01*
X158577427Y-108214471D01*
X158545319Y-108226196D01*
X158520334Y-108244713D01*
X158501704Y-108269701D01*
X158490069Y-108300879D01*
X158485896Y-108340029D01*
X158490208Y-108378573D01*
X158502366Y-108409909D01*
X158522105Y-108435650D01*
X158548601Y-108454527D01*
X158587285Y-108468643D01*
X158642212Y-108476622D01*
X158623100Y-108667864D01*
X158543903Y-108653340D01*
X158481419Y-108630038D01*
X158432533Y-108599082D01*
X158394916Y-108560642D01*
X158365306Y-108514060D01*
X158343757Y-108461674D01*
X158330351Y-108402472D01*
X158325673Y-108335205D01*
X158331230Y-108261337D01*
X158346875Y-108199171D01*
X158371638Y-108146671D01*
X158405357Y-108102259D01*
X158447901Y-108064992D01*
X158494455Y-108038847D01*
X158545897Y-108023013D01*
X158603499Y-108017568D01*
X158669506Y-108023668D01*
X158731849Y-108041809D01*
X158792070Y-108071859D01*
X158859466Y-108118684D01*
X158907424Y-108161605D01*
X158986838Y-108244347D01*
X159097114Y-108359446D01*
X159150237Y-108398709D01*
X159150237Y-108017568D01*
G37*
G36*
X159088725Y-107225498D02*
G01*
X159153274Y-107242912D01*
X159209111Y-107270879D01*
X159257643Y-107309569D01*
X159297566Y-107357445D01*
X159326003Y-107411158D01*
X159343469Y-107471864D01*
X159349539Y-107541172D01*
X159344691Y-107600424D01*
X159330576Y-107654079D01*
X159307384Y-107703167D01*
X159274710Y-107748473D01*
X159231570Y-107790483D01*
X159184755Y-107822189D01*
X159125412Y-107848767D01*
X159051017Y-107869505D01*
X158958599Y-107883190D01*
X158844811Y-107888180D01*
X158728293Y-107883001D01*
X158633487Y-107868782D01*
X158557001Y-107847206D01*
X158495831Y-107819506D01*
X158447428Y-107786392D01*
X158403189Y-107742767D01*
X158369501Y-107695223D01*
X158345456Y-107643208D01*
X158330746Y-107585845D01*
X158325673Y-107521999D01*
X158330011Y-107465594D01*
X158342464Y-107416039D01*
X158362581Y-107372184D01*
X158390458Y-107333138D01*
X158425004Y-107300278D01*
X158467000Y-107273359D01*
X158517632Y-107252380D01*
X158578464Y-107237822D01*
X158599225Y-107423630D01*
X158561618Y-107431308D01*
X158533778Y-107443368D01*
X158513557Y-107459167D01*
X158498413Y-107479778D01*
X158489151Y-107504227D01*
X158485896Y-107533600D01*
X158491932Y-107571429D01*
X158510054Y-107605242D01*
X158542133Y-107636427D01*
X158583052Y-107657544D01*
X158655562Y-107676193D01*
X158773859Y-107689366D01*
X158736144Y-107650511D01*
X158710065Y-107608435D01*
X158694445Y-107562360D01*
X158692239Y-107541172D01*
X158829790Y-107541172D01*
X158834525Y-107576182D01*
X158848469Y-107606994D01*
X158872349Y-107634778D01*
X158902949Y-107654976D01*
X158943755Y-107668133D01*
X158997829Y-107673002D01*
X159057547Y-107667602D01*
X159103753Y-107652848D01*
X159139429Y-107629954D01*
X159167971Y-107598706D01*
X159184032Y-107566294D01*
X159189316Y-107531585D01*
X159184741Y-107497931D01*
X159171338Y-107468733D01*
X159148466Y-107442803D01*
X159118937Y-107424539D01*
X159075866Y-107412058D01*
X159014560Y-107407266D01*
X158951656Y-107412337D01*
X158906350Y-107425702D01*
X158874303Y-107445551D01*
X158849360Y-107473486D01*
X158834767Y-107504930D01*
X158829790Y-107541172D01*
X158692239Y-107541172D01*
X158689106Y-107511069D01*
X158694807Y-107452927D01*
X158711544Y-107399958D01*
X158739483Y-107350960D01*
X158779720Y-107305111D01*
X158827378Y-107268175D01*
X158881368Y-107241590D01*
X158942900Y-107225131D01*
X159013583Y-107219382D01*
X159088725Y-107225498D01*
G37*
D11*
X151713333Y-94454819D02*
X151380000Y-93978628D01*
X151141905Y-94454819D02*
X151141905Y-93454819D01*
X151141905Y-93454819D02*
X151522857Y-93454819D01*
X151522857Y-93454819D02*
X151618095Y-93502438D01*
X151618095Y-93502438D02*
X151665714Y-93550057D01*
X151665714Y-93550057D02*
X151713333Y-93645295D01*
X151713333Y-93645295D02*
X151713333Y-93788152D01*
X151713333Y-93788152D02*
X151665714Y-93883390D01*
X151665714Y-93883390D02*
X151618095Y-93931009D01*
X151618095Y-93931009D02*
X151522857Y-93978628D01*
X151522857Y-93978628D02*
X151141905Y-93978628D01*
X152094286Y-93550057D02*
X152141905Y-93502438D01*
X152141905Y-93502438D02*
X152237143Y-93454819D01*
X152237143Y-93454819D02*
X152475238Y-93454819D01*
X152475238Y-93454819D02*
X152570476Y-93502438D01*
X152570476Y-93502438D02*
X152618095Y-93550057D01*
X152618095Y-93550057D02*
X152665714Y-93645295D01*
X152665714Y-93645295D02*
X152665714Y-93740533D01*
X152665714Y-93740533D02*
X152618095Y-93883390D01*
X152618095Y-93883390D02*
X152046667Y-94454819D01*
X152046667Y-94454819D02*
X152665714Y-94454819D01*
X148834819Y-83933333D02*
X149549104Y-83933333D01*
X149549104Y-83933333D02*
X149691961Y-83980952D01*
X149691961Y-83980952D02*
X149787200Y-84076190D01*
X149787200Y-84076190D02*
X149834819Y-84219047D01*
X149834819Y-84219047D02*
X149834819Y-84314285D01*
X149834819Y-82933333D02*
X149834819Y-83504761D01*
X149834819Y-83219047D02*
X148834819Y-83219047D01*
X148834819Y-83219047D02*
X148977676Y-83314285D01*
X148977676Y-83314285D02*
X149072914Y-83409523D01*
X149072914Y-83409523D02*
X149120533Y-83504761D01*
X130840057Y-92105238D02*
X130792438Y-92200476D01*
X130792438Y-92200476D02*
X130697200Y-92295714D01*
X130697200Y-92295714D02*
X130554342Y-92438571D01*
X130554342Y-92438571D02*
X130506723Y-92533809D01*
X130506723Y-92533809D02*
X130506723Y-92629047D01*
X130744819Y-92581428D02*
X130697200Y-92676666D01*
X130697200Y-92676666D02*
X130601961Y-92771904D01*
X130601961Y-92771904D02*
X130411485Y-92819523D01*
X130411485Y-92819523D02*
X130078152Y-92819523D01*
X130078152Y-92819523D02*
X129887676Y-92771904D01*
X129887676Y-92771904D02*
X129792438Y-92676666D01*
X129792438Y-92676666D02*
X129744819Y-92581428D01*
X129744819Y-92581428D02*
X129744819Y-92390952D01*
X129744819Y-92390952D02*
X129792438Y-92295714D01*
X129792438Y-92295714D02*
X129887676Y-92200476D01*
X129887676Y-92200476D02*
X130078152Y-92152857D01*
X130078152Y-92152857D02*
X130411485Y-92152857D01*
X130411485Y-92152857D02*
X130601961Y-92200476D01*
X130601961Y-92200476D02*
X130697200Y-92295714D01*
X130697200Y-92295714D02*
X130744819Y-92390952D01*
X130744819Y-92390952D02*
X130744819Y-92581428D01*
X130744819Y-91200476D02*
X130744819Y-91771904D01*
X130744819Y-91486190D02*
X129744819Y-91486190D01*
X129744819Y-91486190D02*
X129887676Y-91581428D01*
X129887676Y-91581428D02*
X129982914Y-91676666D01*
X129982914Y-91676666D02*
X130030533Y-91771904D01*
X151633333Y-90854819D02*
X151300000Y-90378628D01*
X151061905Y-90854819D02*
X151061905Y-89854819D01*
X151061905Y-89854819D02*
X151442857Y-89854819D01*
X151442857Y-89854819D02*
X151538095Y-89902438D01*
X151538095Y-89902438D02*
X151585714Y-89950057D01*
X151585714Y-89950057D02*
X151633333Y-90045295D01*
X151633333Y-90045295D02*
X151633333Y-90188152D01*
X151633333Y-90188152D02*
X151585714Y-90283390D01*
X151585714Y-90283390D02*
X151538095Y-90331009D01*
X151538095Y-90331009D02*
X151442857Y-90378628D01*
X151442857Y-90378628D02*
X151061905Y-90378628D01*
X152585714Y-90854819D02*
X152014286Y-90854819D01*
X152300000Y-90854819D02*
X152300000Y-89854819D01*
X152300000Y-89854819D02*
X152204762Y-89997676D01*
X152204762Y-89997676D02*
X152109524Y-90092914D01*
X152109524Y-90092914D02*
X152014286Y-90140533D01*
X144129405Y-97554819D02*
X144129405Y-96554819D01*
X144700833Y-97554819D02*
X144272262Y-96983390D01*
X144700833Y-96554819D02*
X144129405Y-97126247D01*
X145653214Y-97554819D02*
X145081786Y-97554819D01*
X145367500Y-97554819D02*
X145367500Y-96554819D01*
X145367500Y-96554819D02*
X145272262Y-96697676D01*
X145272262Y-96697676D02*
X145177024Y-96792914D01*
X145177024Y-96792914D02*
X145081786Y-96840533D01*
X160914819Y-90733094D02*
X159914819Y-90733094D01*
X159914819Y-90733094D02*
X159914819Y-90494999D01*
X159914819Y-90494999D02*
X159962438Y-90352142D01*
X159962438Y-90352142D02*
X160057676Y-90256904D01*
X160057676Y-90256904D02*
X160152914Y-90209285D01*
X160152914Y-90209285D02*
X160343390Y-90161666D01*
X160343390Y-90161666D02*
X160486247Y-90161666D01*
X160486247Y-90161666D02*
X160676723Y-90209285D01*
X160676723Y-90209285D02*
X160771961Y-90256904D01*
X160771961Y-90256904D02*
X160867200Y-90352142D01*
X160867200Y-90352142D02*
X160914819Y-90494999D01*
X160914819Y-90494999D02*
X160914819Y-90733094D01*
X160914819Y-89209285D02*
X160914819Y-89780713D01*
X160914819Y-89494999D02*
X159914819Y-89494999D01*
X159914819Y-89494999D02*
X160057676Y-89590237D01*
X160057676Y-89590237D02*
X160152914Y-89685475D01*
X160152914Y-89685475D02*
X160200533Y-89780713D01*
X144586666Y-117534819D02*
X144586666Y-118249104D01*
X144586666Y-118249104D02*
X144539047Y-118391961D01*
X144539047Y-118391961D02*
X144443809Y-118487200D01*
X144443809Y-118487200D02*
X144300952Y-118534819D01*
X144300952Y-118534819D02*
X144205714Y-118534819D01*
X145015238Y-117630057D02*
X145062857Y-117582438D01*
X145062857Y-117582438D02*
X145158095Y-117534819D01*
X145158095Y-117534819D02*
X145396190Y-117534819D01*
X145396190Y-117534819D02*
X145491428Y-117582438D01*
X145491428Y-117582438D02*
X145539047Y-117630057D01*
X145539047Y-117630057D02*
X145586666Y-117725295D01*
X145586666Y-117725295D02*
X145586666Y-117820533D01*
X145586666Y-117820533D02*
X145539047Y-117963390D01*
X145539047Y-117963390D02*
X144967619Y-118534819D01*
X144967619Y-118534819D02*
X145586666Y-118534819D01*
X131984819Y-105238094D02*
X130984819Y-105238094D01*
X130984819Y-105238094D02*
X130984819Y-104999999D01*
X130984819Y-104999999D02*
X131032438Y-104857142D01*
X131032438Y-104857142D02*
X131127676Y-104761904D01*
X131127676Y-104761904D02*
X131222914Y-104714285D01*
X131222914Y-104714285D02*
X131413390Y-104666666D01*
X131413390Y-104666666D02*
X131556247Y-104666666D01*
X131556247Y-104666666D02*
X131746723Y-104714285D01*
X131746723Y-104714285D02*
X131841961Y-104761904D01*
X131841961Y-104761904D02*
X131937200Y-104857142D01*
X131937200Y-104857142D02*
X131984819Y-104999999D01*
X131984819Y-104999999D02*
X131984819Y-105238094D01*
X131080057Y-104285713D02*
X131032438Y-104238094D01*
X131032438Y-104238094D02*
X130984819Y-104142856D01*
X130984819Y-104142856D02*
X130984819Y-103904761D01*
X130984819Y-103904761D02*
X131032438Y-103809523D01*
X131032438Y-103809523D02*
X131080057Y-103761904D01*
X131080057Y-103761904D02*
X131175295Y-103714285D01*
X131175295Y-103714285D02*
X131270533Y-103714285D01*
X131270533Y-103714285D02*
X131413390Y-103761904D01*
X131413390Y-103761904D02*
X131984819Y-104333332D01*
X131984819Y-104333332D02*
X131984819Y-103714285D01*
X132354819Y-109841904D02*
X131354819Y-109841904D01*
X132354819Y-109270476D02*
X131783390Y-109699047D01*
X131354819Y-109270476D02*
X131926247Y-109841904D01*
%TO.C,R2*%
D12*
X140560000Y-92400000D02*
X141330000Y-92400000D01*
X148640000Y-92400000D02*
X147870000Y-92400000D01*
X141330000Y-91030000D02*
X147870000Y-91030000D01*
X147870000Y-93770000D01*
X141330000Y-93770000D01*
X141330000Y-91030000D01*
%TO.C,J1*%
X140540000Y-82220000D02*
X140540000Y-84980000D01*
X145730000Y-82220000D02*
X140540000Y-82220000D01*
X145730000Y-82220000D02*
X145730000Y-84980000D01*
X145730000Y-84980000D02*
X140540000Y-84980000D01*
X147000000Y-82220000D02*
X148380000Y-82220000D01*
X148380000Y-82220000D02*
X148380000Y-83600000D01*
%TO.C,Q1*%
X135550000Y-93950000D02*
X135550000Y-90100000D01*
X131250000Y-92010000D02*
G75*
G02*
X132751193Y-89653600I2600000J0D01*
G01*
X132751193Y-94366400D02*
G75*
G02*
X131250000Y-92010000I1098807J2356400D01*
G01*
X134962264Y-89707617D02*
G75*
G02*
X135550000Y-90100000I-1112264J-2302383D01*
G01*
X135550000Y-93950000D02*
G75*
G02*
X134972045Y-94332631I-1700000J1940000D01*
G01*
%TO.C,R1*%
X140480000Y-88400000D02*
X141250000Y-88400000D01*
X148560000Y-88400000D02*
X147790000Y-88400000D01*
X141250000Y-87030000D02*
X147790000Y-87030000D01*
X147790000Y-89770000D01*
X141250000Y-89770000D01*
X141250000Y-87030000D01*
%TO.C,K1*%
X136917500Y-100150000D02*
X136917500Y-102450000D01*
X137157500Y-117000000D02*
X137157500Y-97990000D01*
X138867500Y-103000000D02*
X138867500Y-105300000D01*
X140567500Y-113500000D02*
X142867500Y-113500000D01*
X141167500Y-108800000D02*
X141167500Y-101900000D01*
X143367500Y-102800000D02*
X146367500Y-102800000D01*
X143367500Y-105300000D02*
X138867500Y-105300000D01*
X143367500Y-107800000D02*
X143367500Y-102800000D01*
X143367500Y-107800000D02*
X146367500Y-102800000D01*
X143667500Y-97990000D02*
X137157500Y-97990000D01*
X144867500Y-101900000D02*
X141167500Y-101900000D01*
X144867500Y-101900000D02*
X144867500Y-101000000D01*
X144867500Y-108800000D02*
X141167500Y-108800000D01*
X144867500Y-108800000D02*
X144867500Y-110300000D01*
X144867500Y-110300000D02*
X147567500Y-114800000D01*
X146367500Y-102800000D02*
X146367500Y-107800000D01*
X146367500Y-107800000D02*
X143367500Y-107800000D01*
X149167500Y-113500000D02*
X146867500Y-113500000D01*
X150867500Y-105300000D02*
X146367500Y-105300000D01*
X150867500Y-105300000D02*
X150867500Y-103000000D01*
X152577500Y-97990000D02*
X146067500Y-97990000D01*
X152577500Y-97990000D02*
X152577500Y-117010000D01*
X152577500Y-117010000D02*
X137157500Y-117010000D01*
%TO.C,D1*%
X158045000Y-87435000D02*
X154955000Y-87435000D01*
X156500000Y-92985000D02*
G75*
G02*
X154955170Y-87435000I0J2990000D01*
G01*
X158044830Y-87435000D02*
G75*
G02*
X156500000Y-92985000I-1544830J-2560000D01*
G01*
X159000000Y-89995000D02*
G75*
G02*
X154000000Y-89995000I-2500000J0D01*
G01*
X154000000Y-89995000D02*
G75*
G02*
X159000000Y-89995000I2500000J0D01*
G01*
%TO.C,J2*%
X137180000Y-119080000D02*
X152660000Y-119080000D01*
X137180000Y-122100000D02*
X152660000Y-122100000D01*
X137180000Y-127000000D02*
X152660000Y-127000000D01*
X137180000Y-128500000D02*
X152660000Y-128500000D01*
X137180000Y-129120000D02*
X137180000Y-119080000D01*
X139540000Y-129120000D02*
X137180000Y-129120000D01*
X152660000Y-119080000D02*
X152660000Y-129120000D01*
X152660000Y-129120000D02*
X140140000Y-129120000D01*
X140280000Y-129730000D02*
X139400000Y-129730000D01*
X139840000Y-129120000D01*
X140280000Y-129730000D01*
G36*
X140280000Y-129730000D02*
G01*
X139400000Y-129730000D01*
X139840000Y-129120000D01*
X140280000Y-129730000D01*
G37*
%TO.C,D2*%
X132530000Y-106200000D02*
X135470000Y-106200000D01*
X132530000Y-106320000D02*
X135470000Y-106320000D01*
X132530000Y-106440000D02*
X135470000Y-106440000D01*
X134000000Y-100760000D02*
X134000000Y-101780000D01*
X134000000Y-108240000D02*
X134000000Y-107220000D01*
X132530000Y-101780000D02*
X135470000Y-101780000D01*
X135470000Y-107220000D01*
X132530000Y-107220000D01*
X132530000Y-101780000D01*
%TD*%
M02*
