%TF.GenerationSoftware,KiCad,Pcbnew,10.0.1*%
%TF.CreationDate,2026-04-28T09:51:18-03:00*%
%TF.ProjectId,Projeto_Placa_de_rele,50726f6a-6574-46f5-9f50-6c6163615f64,rev?*%
%TF.SameCoordinates,Original*%
%TF.FileFunction,Copper,L2,Bot*%
%TF.FilePolarity,Positive*%
%FSLAX46Y46*%
G04 Gerber Fmt 4.6, Leading zero omitted, Abs format (unit mm)*
G04 Created by KiCad (PCBNEW 10.0.1) date 2026-04-28 09:51:18*
%MOMM*%
%LPD*%
G01*
G04 APERTURE LIST*
G04 Aperture macros list*
%AMRoundRect*
0 Rectangle with rounded corners*
0 $1 Rounding radius*
0 $2 $3 $4 $5 $6 $7 $8 $9 X,Y pos of 4 corners*
0 Add a 4 corners polygon primitive as box body*
4,1,4,$2,$3,$4,$5,$6,$7,$8,$9,$2,$3,0*
0 Add four circle primitives for the rounded corners*
1,1,$1+$1,$2,$3*
1,1,$1+$1,$4,$5*
1,1,$1+$1,$6,$7*
1,1,$1+$1,$8,$9*
0 Add four rect primitives between the rounded corners*
20,1,$1+$1,$2,$3,$4,$5,0*
20,1,$1+$1,$4,$5,$6,$7,0*
20,1,$1+$1,$6,$7,$8,$9,0*
20,1,$1+$1,$8,$9,$2,$3,0*%
G04 Aperture macros list end*
%TA.AperFunction,ComponentPad*%
%ADD10C,1.600000*%
%TD*%
%TA.AperFunction,ComponentPad*%
%ADD11R,1.700000X1.700000*%
%TD*%
%TA.AperFunction,ComponentPad*%
%ADD12C,1.700000*%
%TD*%
%TA.AperFunction,ComponentPad*%
%ADD13R,1.500000X1.500000*%
%TD*%
%TA.AperFunction,ComponentPad*%
%ADD14C,1.500000*%
%TD*%
%TA.AperFunction,ComponentPad*%
%ADD15C,2.400000*%
%TD*%
%TA.AperFunction,ComponentPad*%
%ADD16RoundRect,0.250000X-1.000000X-1.000000X1.000000X-1.000000X1.000000X1.000000X-1.000000X1.000000X0*%
%TD*%
%TA.AperFunction,ComponentPad*%
%ADD17R,1.800000X1.800000*%
%TD*%
%TA.AperFunction,ComponentPad*%
%ADD18C,1.800000*%
%TD*%
%TA.AperFunction,ComponentPad*%
%ADD19RoundRect,0.250000X-1.050000X-1.050000X1.050000X-1.050000X1.050000X1.050000X-1.050000X1.050000X0*%
%TD*%
%TA.AperFunction,ComponentPad*%
%ADD20C,2.600000*%
%TD*%
%TA.AperFunction,ComponentPad*%
%ADD21RoundRect,0.249999X0.850001X-0.850001X0.850001X0.850001X-0.850001X0.850001X-0.850001X-0.850001X0*%
%TD*%
%TA.AperFunction,ComponentPad*%
%ADD22C,2.200000*%
%TD*%
%TA.AperFunction,Conductor*%
%ADD23C,2.000000*%
%TD*%
%TA.AperFunction,Conductor*%
%ADD24C,1.000000*%
%TD*%
G04 APERTURE END LIST*
D10*
%TO.P,R2,1*%
%TO.N,/SIG*%
X149680000Y-92400000D03*
%TO.P,R2,2*%
%TO.N,/BASE*%
X139520000Y-92400000D03*
%TD*%
D11*
%TO.P,J1,1,Pin_1*%
%TO.N,GND*%
X147000000Y-83600000D03*
D12*
%TO.P,J1,2,Pin_2*%
%TO.N,/SIG*%
X144460000Y-83600000D03*
%TO.P,J1,3,Pin_3*%
%TO.N,+5V*%
X141920000Y-83600000D03*
%TD*%
D13*
%TO.P,Q1,1,C*%
%TO.N,/COL*%
X133850000Y-94550000D03*
D14*
%TO.P,Q1,2,B*%
%TO.N,/BASE*%
X133850000Y-92010000D03*
%TO.P,Q1,3,E*%
%TO.N,GND*%
X133850000Y-89470000D03*
%TD*%
D10*
%TO.P,R1,1*%
%TO.N,Net-(D1-A)*%
X149600000Y-88400000D03*
%TO.P,R1,2*%
%TO.N,/SIG*%
X139440000Y-88400000D03*
%TD*%
D15*
%TO.P,K1,11*%
%TO.N,/RL_COM*%
X144867500Y-99300000D03*
%TO.P,K1,12*%
%TO.N,/RL_NC*%
X150867500Y-113500000D03*
%TO.P,K1,14*%
%TO.N,/RL_NO*%
X138867500Y-113500000D03*
D16*
%TO.P,K1,A1*%
%TO.N,+5V*%
X138867500Y-101300000D03*
D15*
%TO.P,K1,A2*%
%TO.N,/COL*%
X150867500Y-101300000D03*
%TD*%
D17*
%TO.P,D1,1,K*%
%TO.N,GND*%
X156500000Y-88725000D03*
D18*
%TO.P,D1,2,A*%
%TO.N,Net-(D1-A)*%
X156500000Y-91265000D03*
%TD*%
D19*
%TO.P,J2,1,Pin_1*%
%TO.N,/RL_NO*%
X139840000Y-124400000D03*
D20*
%TO.P,J2,2,Pin_2*%
%TO.N,/RL_COM*%
X144920000Y-124400000D03*
%TO.P,J2,3,Pin_3*%
%TO.N,/RL_NC*%
X150000000Y-124400000D03*
%TD*%
D21*
%TO.P,D2,1,K*%
%TO.N,+5V*%
X134000000Y-109580000D03*
D22*
%TO.P,D2,2,A*%
%TO.N,/COL*%
X134000000Y-99420000D03*
%TD*%
%TO.N,/RL_COM*%
D23*
X144867500Y-99300000D02*
X144867500Y-124347500D01*
X144867500Y-124347500D02*
X144920000Y-124400000D01*
%TO.N,/SIG*%
D24*
X144460000Y-87180000D02*
X144460000Y-83600000D01*
X149680000Y-92400000D02*
X144460000Y-87180000D01*
X144460000Y-87340000D02*
X143000000Y-88800000D01*
X144460000Y-83600000D02*
X144460000Y-87340000D01*
%TO.N,GND*%
X156500000Y-86300000D02*
X156000000Y-85800000D01*
X145034001Y-90301000D02*
X148934001Y-94201000D01*
X158525000Y-88725000D02*
X156500000Y-88725000D01*
X149200000Y-85800000D02*
X147000000Y-83600000D01*
X148934001Y-94201000D02*
X158799000Y-94201000D01*
X159600000Y-89800000D02*
X158525000Y-88725000D01*
X156500000Y-88725000D02*
X156500000Y-86300000D01*
X158799000Y-94201000D02*
X159600000Y-93400000D01*
X133850000Y-89470000D02*
X134681000Y-90301000D01*
X156000000Y-85800000D02*
X149200000Y-85800000D01*
X159600000Y-93400000D02*
X159600000Y-89800000D01*
X134681000Y-90301000D02*
X145034001Y-90301000D01*
%TO.N,Net-(D1-A)*%
X156500000Y-91265000D02*
X154265000Y-91265000D01*
X151800000Y-88800000D02*
X149600000Y-88800000D01*
X154265000Y-91265000D02*
X151800000Y-88800000D01*
%TO.N,/COL*%
X149600000Y-95800000D02*
X136800000Y-95800000D01*
X150867500Y-97067500D02*
X149600000Y-95800000D01*
X134000000Y-98600000D02*
X134000000Y-99420000D01*
X150867500Y-101300000D02*
X150867500Y-97067500D01*
X134000000Y-94700000D02*
X133850000Y-94550000D01*
X136800000Y-95800000D02*
X134000000Y-98600000D01*
X134000000Y-99420000D02*
X134000000Y-94700000D01*
%TO.N,+5V*%
X128800000Y-89200000D02*
X134400000Y-83600000D01*
X136420000Y-109580000D02*
X138867500Y-107132500D01*
X134000000Y-109580000D02*
X136420000Y-109580000D01*
X138867500Y-107132500D02*
X138867500Y-101300000D01*
X130780000Y-109580000D02*
X128800000Y-107600000D01*
X128800000Y-107600000D02*
X128800000Y-89200000D01*
X134400000Y-83600000D02*
X141920000Y-83600000D01*
X134000000Y-109580000D02*
X130780000Y-109580000D01*
%TO.N,/SIG*%
X149680000Y-92400000D02*
X149600000Y-92400000D01*
X139440000Y-88800000D02*
X143000000Y-88800000D01*
%TO.N,/RL_NC*%
D23*
X150000000Y-120800000D02*
X150000000Y-124400000D01*
X150867500Y-119932500D02*
X150000000Y-120800000D01*
X150867500Y-113500000D02*
X150867500Y-119932500D01*
%TO.N,/RL_COM*%
X144867500Y-124145000D02*
X145095000Y-124372500D01*
%TO.N,/RL_NO*%
X138867500Y-119732500D02*
X138800000Y-119800000D01*
X139840000Y-120840000D02*
X139840000Y-124400000D01*
X138800000Y-119800000D02*
X139840000Y-120840000D01*
X138867500Y-113500000D02*
X138867500Y-119732500D01*
%TO.N,/BASE*%
D24*
X135610000Y-92010000D02*
X136000000Y-92400000D01*
X136000000Y-92400000D02*
X139520000Y-92400000D01*
X133850000Y-92010000D02*
X135610000Y-92010000D01*
%TD*%
M02*
